<?xml version="1.0" standalone="no"?>
<!DOCTYPE svg PUBLIC "-//W3C//DTD SVG 20010904//EN"
 "http://www.w3.org/TR/2001/REC-SVG-20010904/DTD/svg10.dtd">
<svg version="1.0" xmlns="http://www.w3.org/2000/svg"
 width="4000.000000pt" height="1540.000000pt" viewBox="0 0 4000.000000 1540.000000"
 preserveAspectRatio="xMidYMid meet">

<g transform="translate(0.000000,1540.000000) scale(0.100000,-0.100000)"
fill="#1e3b73" stroke="none">
<path d="M30708 15169 c-2 -5 -20 -14 -41 -18 -21 -5 -35 -5 -31 0 3 5 1 9 -5
9 -5 0 -13 -4 -16 -10 -3 -5 -15 -10 -25 -10 -12 0 -17 -5 -14 -14 6 -16 -24
-26 -78 -26 -20 0 -40 -4 -43 -10 -3 -6 1 -7 9 -4 9 4 16 1 16 -6 0 -8 -11
-11 -30 -8 -16 3 -30 1 -30 -4 0 -4 -3 -7 -7 -7 -23 4 -43 -2 -40 -12 1 -6 -8
-15 -21 -20 -16 -6 -21 -5 -16 2 9 15 -39 -10 -48 -25 -4 -6 -15 -11 -25 -12
-24 -1 -134 -59 -127 -67 3 -3 -9 -13 -28 -23 -18 -9 -35 -20 -38 -23 -3 -3
-32 -19 -64 -36 -33 -16 -67 -37 -76 -45 -9 -8 -28 -24 -44 -35 -15 -11 -43
-31 -61 -45 -18 -14 -43 -32 -55 -40 -83 -56 -244 -189 -340 -280 -32 -30 -72
-66 -89 -80 -61 -49 -131 -119 -131 -129 0 -6 -5 -11 -10 -11 -6 0 -41 -29
-77 -65 -36 -35 -70 -62 -76 -58 -6 4 -8 0 -4 -10 4 -10 1 -17 -6 -17 -18 0
-119 -105 -110 -114 5 -4 4 -7 -2 -5 -17 4 -45 -13 -45 -27 0 -8 -7 -14 -15
-14 -9 0 -20 -11 -25 -24 -6 -16 -19 -25 -42 -28 -18 -3 -35 -2 -38 2 -3 4
-27 10 -55 11 -27 2 -52 7 -55 10 -9 11 -183 36 -230 33 -41 -2 -42 -2 -10 4
l35 8 -34 7 c-18 4 -42 7 -53 7 -29 0 -158 41 -158 50 0 4 15 27 34 50 19 24
32 49 29 56 -2 6 7 24 22 38 22 22 26 33 23 76 l-3 50 -37 0 c-39 0 -44 -3
-121 -76 -25 -24 -50 -44 -56 -44 -6 0 -11 -7 -11 -15 0 -13 -13 -20 -23 -12
-8 5 -36 -26 -31 -34 3 -5 2 -8 -3 -7 -4 2 -25 -8 -47 -21 -49 -31 -119 -38
-168 -17 -21 9 -38 23 -38 31 0 8 30 50 67 92 63 72 67 80 69 130 l2 53 -43 0
c-52 0 -77 -8 -68 -23 4 -6 0 -8 -9 -5 -14 6 -68 -31 -112 -75 -10 -9 -22 -15
-27 -12 -8 6 -13 -7 -11 -27 1 -3 -5 -9 -14 -12 -10 -4 -13 -2 -8 7 4 6 -2 4
-14 -7 -12 -10 -19 -23 -16 -28 3 -4 2 -7 -3 -6 -4 1 -27 -8 -51 -21 -60 -31
-123 -36 -217 -17 -142 29 -251 44 -281 39 -20 -3 -25 -2 -16 5 17 12 -26 19
-171 28 -72 5 -113 12 -123 21 -10 10 -39 14 -111 12 -122 -2 -170 -8 -152
-20 10 -6 5 -9 -16 -9 -42 0 -107 -19 -100 -30 6 -9 -33 -25 -52 -22 -7 2 -13
-4 -13 -13 0 -8 -6 -15 -13 -15 -7 0 -46 -34 -87 -75 l-74 -75 34 0 c30 0 82
-19 55 -20 -26 -1 24 -20 53 -20 18 0 31 -4 28 -8 -6 -11 158 -75 197 -77 15
-1 30 -5 35 -10 4 -4 -2 -5 -13 -1 -12 4 -16 4 -10 -2 15 -14 76 -33 86 -26
12 7 147 -37 219 -71 40 -19 47 -24 25 -21 l-30 5 30 -14 c17 -8 40 -14 52
-15 12 0 24 -4 28 -9 3 -5 22 -15 43 -22 44 -14 197 -73 460 -176 106 -42 195
-73 198 -70 3 3 -12 10 -33 17 -21 7 -42 17 -48 22 -15 15 34 0 73 -23 18 -10
42 -19 53 -19 10 0 19 -4 19 -10 0 -5 -8 -7 -17 -3 -10 3 -16 4 -13 1 7 -8
248 -100 390 -150 133 -46 148 -57 133 -91 -12 -25 -198 -246 -219 -259 -7 -4
-15 -19 -18 -33 -4 -14 -11 -23 -16 -20 -5 3 -16 -8 -25 -25 -8 -16 -20 -30
-25 -30 -6 0 -10 -7 -10 -16 0 -9 -9 -18 -20 -21 -11 -3 -20 -14 -20 -24 0
-12 -7 -19 -20 -19 -13 0 -20 -7 -20 -20 0 -11 -7 -20 -15 -20 -9 0 -20 -11
-25 -25 -5 -14 -13 -24 -18 -23 -5 2 -40 -33 -78 -76 -232 -266 -305 -344
-333 -356 -35 -14 -54 -12 -274 33 -66 14 -128 22 -140 19 -13 -3 -18 -1 -13
6 4 7 -14 13 -51 16 -32 3 -89 10 -128 14 -86 10 -154 -2 -188 -34 -15 -13
-30 -23 -35 -22 -10 4 -72 -59 -72 -73 0 -6 -4 -8 -9 -4 -5 3 -13 0 -17 -7 -4
-7 -4 -10 1 -6 4 4 17 2 28 -3 14 -8 16 -13 7 -19 -15 -9 18 -33 112 -83 53
-28 62 -36 45 -39 -18 -3 -12 -9 33 -33 54 -29 60 -31 89 -34 8 0 11 -4 8 -8
-10 -10 92 -65 106 -57 7 4 9 3 4 -1 -4 -5 28 -29 71 -54 43 -25 91 -56 107
-67 l29 -22 -32 -36 c-18 -20 -32 -34 -32 -30 0 4 -9 -1 -20 -11 -11 -10 -17
-22 -13 -28 3 -5 2 -7 -4 -4 -5 3 -25 -7 -44 -23 -19 -16 -30 -29 -25 -30 10
0 -38 -40 -49 -40 -4 0 -26 -19 -49 -42 -54 -54 -116 -107 -116 -100 0 3 -6
-2 -13 -12 -7 -9 -19 -16 -27 -14 -8 2 -14 -1 -15 -7 -1 -19 -16 -34 -29 -29
-7 3 -19 -3 -27 -12 -12 -16 -12 -17 1 -10 8 5 3 -3 -12 -18 -28 -27 -44 -34
-32 -14 4 7 3 8 -5 4 -6 -4 -9 -11 -6 -16 3 -4 -8 -14 -24 -21 -16 -7 -27 -17
-25 -21 3 -4 -9 -14 -26 -23 -16 -8 -30 -21 -30 -27 0 -6 -3 -9 -6 -5 -4 3
-39 -20 -78 -52 -101 -82 -418 -327 -498 -385 -37 -27 -65 -53 -62 -58 3 -4
-1 -5 -9 -2 -8 3 -20 -3 -28 -12 -12 -15 -12 -17 0 -9 9 5 12 4 7 -3 -4 -6
-13 -9 -20 -6 -7 3 -19 -3 -27 -13 -13 -17 -13 -17 6 -3 18 14 19 14 7 -2 -8
-9 -19 -15 -26 -12 -7 3 -27 -12 -44 -32 -18 -21 -32 -31 -32 -24 0 7 -18 -6
-40 -28 -45 -45 -203 -156 -244 -172 -14 -5 -26 -15 -26 -21 0 -7 -3 -10 -6
-6 -3 3 -17 2 -30 -3 -20 -8 -29 -3 -68 42 -26 27 -46 54 -46 60 0 5 -4 7 -9
4 -9 -6 -52 38 -91 94 -14 19 -33 43 -42 54 -10 11 -18 24 -18 29 0 17 -365
374 -440 430 -41 31 -106 81 -145 111 -38 30 -75 55 -81 55 -6 1 -19 10 -29
21 -10 11 -24 20 -31 20 -7 0 -18 9 -24 20 -6 11 -15 20 -21 20 -5 0 -34 15
-65 33 -31 17 -72 41 -92 53 -21 11 -36 25 -35 32 2 6 -4 9 -13 5 -8 -3 -28 4
-44 16 -16 11 -34 21 -41 21 -6 0 -23 8 -37 19 -15 10 -37 22 -50 25 -12 4
-20 12 -17 17 3 5 -2 6 -11 2 -13 -5 -15 -3 -9 7 5 8 4 11 -3 6 -13 -8 -83 19
-93 36 -6 10 -20 13 -74 17 -15 1 -17 3 -6 10 11 7 9 10 -8 16 -11 3 -24 4
-28 2 -9 -6 -82 13 -128 32 -16 7 -48 16 -70 21 -22 5 -80 20 -130 35 -49 14
-121 32 -159 41 -37 8 -75 22 -83 30 -9 8 -25 14 -37 12 -11 -1 -25 0 -31 4
-15 9 -178 42 -516 103 -76 14 -487 16 -3766 18 -2025 1 -3677 0 -3673 -3 4
-3 -23 -4 -61 -3 l-69 2 0 -2872 c0 -1580 -3 -2909 -6 -2954 l-7 -81 -53 -7
c-40 -5 -52 -10 -47 -21 5 -14 4 -15 -96 -20 -70 -3 -144 -15 -156 -23 -5 -5
-89 -11 -185 -14 -96 -4 -233 -13 -305 -21 -204 -23 -537 -36 -950 -37 -425 0
-578 10 -915 58 -25 3 -51 5 -59 4 -24 -4 -82 10 -76 18 5 9 -77 27 -105 23
-26 -3 -70 9 -65 18 3 5 -16 12 -42 16 -27 4 -50 10 -53 13 -3 4 -32 15 -65
25 -363 110 -673 307 -842 535 -31 42 -65 83 -76 92 -11 9 -21 27 -22 42 -2
14 -8 34 -14 44 -13 23 -14 8 -1 -18 6 -10 8 -19 6 -19 -10 0 -37 60 -32 69 3
5 -3 43 -14 85 -54 212 -46 571 18 798 11 37 15 65 11 62 -12 -7 -12 -5 16 66
14 35 30 67 36 70 6 4 12 13 13 21 8 41 19 69 27 69 5 0 9 9 9 19 0 11 4 23
10 26 5 3 36 59 67 123 32 64 61 119 66 120 4 2 5 8 1 13 -3 5 0 9 5 9 6 0 11
8 11 18 0 17 69 135 70 118 0 -5 30 37 66 94 36 57 93 140 126 184 34 44 61
86 61 93 0 7 2 11 5 8 2 -2 34 33 70 78 228 284 567 652 827 897 200 188 231
218 249 244 10 14 24 26 30 26 6 0 29 17 52 38 22 20 72 66 112 101 40 36 72
71 72 79 0 9 6 12 16 8 8 -3 12 -2 9 4 -3 5 5 15 19 22 14 6 26 17 26 25 0 12
12 17 33 14 4 0 7 9 7 22 0 16 -3 18 -9 8 -5 -7 -19 -14 -32 -15 -14 0 -24 -7
-24 -15 0 -8 -6 -16 -14 -19 -9 -3 -11 0 -6 8 6 9 4 11 -4 6 -7 -5 -10 -10 -7
-13 3 -4 -7 -17 -22 -29 -29 -25 -48 -32 -36 -12 4 7 3 8 -5 4 -6 -4 -9 -12
-5 -17 3 -5 -11 -16 -31 -25 -20 -8 -33 -19 -30 -24 3 -6 2 -10 -4 -10 -5 0
-20 -9 -33 -20 -57 -48 -86 -70 -93 -70 -4 0 -18 -10 -30 -22 -13 -13 -29 -27
-37 -33 -7 -5 -31 -23 -53 -40 -22 -16 -46 -28 -54 -27 -7 2 -10 -1 -7 -7 4
-6 -7 -19 -23 -29 -17 -10 -28 -22 -24 -25 3 -4 0 -7 -9 -7 -8 0 -39 -22 -68
-50 -30 -27 -56 -48 -58 -46 -1 2 -22 -14 -45 -35 -70 -64 -77 -69 -87 -69 -6
0 -10 -5 -10 -11 0 -6 -7 -9 -15 -5 -8 3 -14 2 -14 -2 4 -22 -4 -31 -28 -34
-17 -2 -28 -9 -28 -18 0 -8 -9 -15 -19 -15 -11 0 -21 -6 -24 -13 -8 -26 -119
-120 -135 -114 -4 1 -10 -5 -14 -14 -3 -8 -16 -20 -29 -25 -13 -5 -23 -14 -22
-21 2 -7 -7 -14 -19 -16 -13 -2 -23 -8 -23 -13 0 -18 -154 -159 -170 -156 -9
1 -15 -6 -15 -18 0 -15 -6 -19 -24 -17 -17 1 -22 -2 -17 -13 3 -8 1 -15 -4
-15 -19 0 -25 -2 -37 -12 -7 -6 -10 -14 -7 -19 3 -5 -7 -14 -21 -19 -14 -5
-23 -14 -20 -20 3 -5 -5 -15 -19 -21 -14 -7 -23 -16 -20 -20 3 -5 -6 -13 -19
-18 -13 -5 -27 -17 -30 -25 -4 -9 -13 -16 -22 -16 -8 0 -15 -6 -15 -13 0 -7
-25 -32 -55 -56 -30 -24 -55 -48 -55 -53 0 -5 -8 -8 -17 -6 -12 2 -18 -4 -18
-17 0 -13 -7 -20 -20 -20 -13 0 -20 -7 -20 -20 0 -12 -7 -20 -17 -20 -10 0
-18 -5 -19 -10 -1 -18 -20 -34 -34 -29 -8 4 -15 -3 -17 -18 -2 -15 -9 -22 -19
-20 -10 1 -19 -6 -22 -18 -3 -11 -12 -20 -20 -20 -8 0 -17 -9 -20 -20 -3 -11
-12 -20 -20 -20 -8 0 -17 -9 -20 -20 -3 -11 -11 -20 -19 -20 -7 0 -18 -10 -23
-22 -6 -13 -16 -22 -23 -21 -7 2 -12 -4 -12 -12 0 -9 -12 -20 -26 -25 -14 -6
-22 -15 -19 -20 3 -6 -4 -14 -17 -19 -13 -4 -23 -17 -23 -27 0 -12 -6 -18 -17
-16 -11 2 -18 -5 -20 -20 -2 -13 -10 -23 -18 -23 -8 0 -16 -6 -16 -12 -1 -7
-2 -18 -3 -24 0 -6 -8 -9 -16 -6 -8 4 -17 1 -21 -5 -4 -7 -3 -8 4 -4 26 16 9
-8 -39 -57 -29 -29 -55 -51 -60 -50 -5 2 -6 -4 -2 -13 4 -10 -2 -17 -16 -21
-12 -3 -21 -13 -21 -24 0 -11 -4 -19 -9 -19 -5 0 -26 -25 -46 -56 -21 -31 -53
-72 -71 -91 -19 -19 -34 -39 -34 -44 0 -5 -7 -12 -15 -15 -8 -3 -17 -14 -20
-23 -3 -10 -23 -42 -45 -72 -22 -30 -48 -65 -58 -78 -9 -14 -27 -36 -38 -50
-12 -14 -31 -46 -44 -70 -12 -25 -28 -51 -35 -58 -17 -16 -105 -157 -105 -167
0 -4 -10 -20 -21 -36 -12 -16 -19 -35 -16 -44 3 -8 2 -18 -3 -21 -4 -3 -10 0
-12 6 -2 6 -10 -2 -17 -18 -15 -32 -19 -38 -62 -113 -18 -30 -32 -61 -32 -67
0 -7 -4 -13 -9 -13 -5 0 -13 -12 -19 -27 -6 -16 -18 -46 -29 -68 -106 -232
-173 -423 -185 -527 -4 -32 -11 -58 -16 -58 -13 0 -11 -204 2 -217 6 -6 13
-39 15 -74 5 -72 35 -187 70 -269 12 -30 26 -67 29 -82 4 -16 11 -25 16 -22 5
3 9 -5 9 -18 0 -22 12 -42 98 -163 19 -25 35 -53 36 -60 1 -8 6 -18 11 -22 4
-5 5 -1 0 7 -5 8 -5 12 0 8 4 -4 13 -18 20 -30 7 -14 18 -22 29 -20 13 3 17
-1 13 -12 -3 -8 2 -20 11 -28 15 -11 15 -11 5 3 -26 33 2 27 42 -9 64 -56 129
-107 137 -107 4 0 29 -17 57 -37 27 -20 71 -47 98 -60 26 -12 49 -26 51 -30 2
-4 11 -8 21 -8 9 0 21 -4 26 -9 6 -5 28 -16 50 -24 22 -8 69 -26 105 -40 36
-14 92 -33 125 -43 33 -10 69 -24 81 -31 12 -7 28 -11 36 -8 9 4 33 -1 54 -11
80 -34 423 -103 601 -119 40 -4 71 -11 68 -15 -13 -20 558 -30 998 -17 259 7
269 8 277 18 3 4 59 10 125 13 66 4 140 8 165 11 25 2 81 7 124 11 44 3 89 10
102 14 12 5 67 10 121 11 54 1 145 10 203 20 58 10 128 18 157 19 29 0 99 9
155 20 57 11 117 20 134 20 17 0 64 8 105 19 41 10 103 21 139 24 36 4 75 8
88 11 12 3 22 1 22 -3 0 -4 13 -6 30 -3 16 2 30 8 30 13 0 5 -7 6 -15 3 -8 -4
-15 -2 -15 2 0 5 19 10 42 11 24 1 86 11 138 22 52 12 112 25 132 30 25 5 35
5 31 -2 -4 -6 3 -8 18 -4 13 4 30 7 37 7 6 0 12 7 12 15 0 12 11 15 53 14 63
-2 118 9 132 27 6 8 37 15 75 17 76 6 120 16 120 28 0 5 18 9 40 9 34 0 197
36 422 92 26 6 45 15 42 20 -5 8 3 9 64 13 15 1 43 9 62 18 19 9 68 21 109 27
41 6 79 14 85 18 6 4 24 9 41 11 16 2 59 14 96 27 36 13 75 24 85 24 11 0 28
6 39 13 11 8 48 20 83 27 34 7 65 17 68 21 3 5 14 9 25 9 11 0 48 11 82 24 79
30 164 56 202 63 17 3 35 8 40 12 6 4 39 16 75 26 36 10 91 26 122 36 32 10
67 16 78 14 11 -2 18 0 15 5 -5 8 51 31 85 35 8 1 29 8 45 15 17 6 50 18 75
25 53 15 276 92 305 105 11 5 40 14 65 21 25 6 50 14 55 18 18 13 149 52 189
56 21 2 42 9 47 16 4 7 19 14 33 15 14 0 34 8 44 16 9 9 40 23 67 31 28 8 64
22 80 31 17 9 40 16 51 16 12 0 35 7 50 15 16 8 38 15 49 15 33 0 65 12 59 21
-3 5 3 10 13 11 10 0 23 2 28 3 61 14 75 19 65 25 -6 4 10 13 37 20 26 7 55
19 64 26 8 8 31 17 50 20 19 4 39 10 44 14 6 4 28 13 50 20 22 7 53 21 70 31
16 11 38 19 48 19 10 0 35 9 57 20 22 11 50 20 63 20 14 0 30 7 37 15 7 8 28
17 49 21 20 4 47 15 60 25 13 11 30 19 39 19 8 0 33 8 56 19 23 10 66 29 96
41 30 12 73 31 96 41 23 11 47 19 55 19 8 0 32 9 54 19 62 30 145 62 165 64
10 1 17 4 14 9 -6 10 30 28 56 28 12 0 33 9 47 20 14 11 33 20 42 20 9 0 30 9
46 20 17 11 38 20 48 20 11 0 30 9 44 20 14 11 38 20 53 20 15 0 30 6 33 14 3
8 21 17 39 21 18 4 47 16 64 26 17 10 42 19 55 19 14 0 32 9 42 20 9 11 28 20
41 20 13 0 29 7 36 15 7 8 30 20 51 27 22 6 39 15 39 19 0 4 14 11 32 14 17 4
51 18 76 31 25 13 51 24 59 24 8 0 12 4 9 9 -3 5 11 12 31 16 21 4 49 15 64
26 15 10 32 19 39 19 6 0 31 12 55 26 25 14 49 23 54 20 5 -4 12 -2 16 3 6 11
117 66 154 76 18 6 20 9 10 16 -11 7 -9 9 6 9 39 0 99 21 85 30 -9 5 3 11 34
15 26 4 50 14 53 21 3 7 21 16 40 20 19 4 37 13 40 20 3 8 10 14 15 14 16 0
148 63 148 71 0 3 21 12 46 19 27 8 41 16 33 20 -7 5 1 10 22 15 65 13 73 16
58 26 -12 7 -11 9 1 9 30 0 90 21 85 29 -2 5 16 14 42 20 33 9 43 15 33 21 -9
6 2 11 33 15 26 4 47 11 47 15 0 7 23 18 75 35 16 5 17 8 5 15 -12 8 -11 10 6
10 35 0 87 22 74 30 -8 5 0 10 21 15 64 13 73 16 59 25 -9 6 0 11 26 15 54 9
68 14 60 23 -4 4 12 12 36 18 24 6 42 16 41 22 -2 6 16 15 40 19 26 6 42 14
42 23 0 9 12 16 31 18 22 2 34 9 37 23 4 14 14 19 40 19 20 0 39 5 43 12 5 7
2 9 -7 4 -8 -4 -5 0 5 8 11 9 30 16 44 16 13 0 21 4 17 9 -5 10 27 33 42 30
22 -4 44 2 39 10 -9 14 20 32 53 33 23 1 28 4 21 13 -8 10 -2 14 24 19 20 4
39 13 43 21 5 7 24 17 43 23 19 5 34 14 32 21 -1 6 2 12 8 12 13 2 20 3 53 12
15 4 25 12 22 17 -3 5 7 12 22 16 15 4 36 15 46 25 10 11 31 19 47 19 30 0 41
15 18 23 -7 2 5 7 27 11 22 4 49 10 60 13 l20 6 -20 7 c-16 7 -11 9 23 15 25
5 42 13 42 21 0 8 16 16 41 20 28 5 39 11 35 20 -3 9 5 16 22 20 15 4 35 15
45 25 10 11 26 19 35 19 10 0 25 9 35 20 9 11 26 20 37 20 10 0 24 9 30 20 6
11 19 20 29 20 10 0 29 8 42 19 13 10 34 21 47 25 12 4 20 11 17 15 -2 5 14
14 37 20 24 8 36 16 30 20 -7 4 8 12 33 19 25 7 44 17 43 23 -2 7 12 16 30 21
18 5 30 13 27 18 -3 4 11 14 30 20 19 6 35 15 35 18 0 9 50 32 68 32 7 0 11 4
7 9 -3 5 11 15 30 21 19 6 33 15 30 20 -3 5 11 14 30 20 19 6 35 15 35 19 0 4
29 22 65 40 36 19 65 37 65 42 0 4 16 13 35 19 19 6 33 15 30 20 -3 5 11 14
30 20 19 6 33 15 30 20 -3 5 9 11 25 15 17 4 39 15 48 24 14 15 158 113 214
146 9 6 37 25 63 43 25 17 48 32 51 32 3 0 25 16 49 35 69 57 127 93 141 88 7
-2 17 5 24 16 6 12 20 21 31 21 11 0 22 6 25 14 7 17 193 152 206 148 4 -1 11
5 14 13 3 8 10 12 15 9 5 -3 9 0 9 5 0 6 8 11 17 11 9 0 14 3 10 6 -7 8 5 20
58 59 22 17 72 55 111 85 39 30 82 63 95 72 110 78 229 171 229 179 0 5 5 9
10 9 6 0 20 9 32 20 12 11 28 20 35 20 8 0 11 5 8 10 -3 6 -2 10 2 10 9 0 41
26 168 135 44 39 110 94 145 124 36 30 70 59 75 65 6 6 52 47 104 91 94 79
226 203 429 403 57 56 109 102 114 102 5 0 6 5 3 10 -3 6 -2 10 4 10 6 0 50
39 98 88 48 48 84 78 80 67 -7 -19 11 -1 179 178 40 42 79 77 86 77 24 0 57
-30 125 -113 36 -45 70 -81 75 -79 5 1 7 -2 4 -7 -7 -11 112 -157 125 -153 6
1 8 -2 4 -8 -3 -5 1 -13 9 -16 9 -3 13 -11 9 -17 -3 -5 -1 -7 4 -4 6 4 28 -10
49 -31 21 -20 42 -36 46 -35 4 2 8 -2 8 -7 0 -24 40 -5 91 43 11 9 23 17 27
17 5 0 14 12 21 26 6 15 15 24 18 20 3 -3 12 2 19 12 7 9 18 17 26 17 19 0 16
92 -4 141 -49 121 -137 374 -154 446 -16 64 -16 68 3 100 10 18 48 57 84 85
35 29 63 58 61 64 -1 6 1 8 6 5 12 -7 147 100 147 117 0 6 8 11 17 9 9 -1 25
9 36 23 11 14 23 25 27 25 11 0 120 92 120 101 0 5 5 9 10 10 22 2 45 21 39
31 -4 7 -3 8 4 4 7 -4 12 -2 12 3 0 6 5 11 11 11 14 0 75 51 72 61 -1 4 11 12
27 18 17 5 29 14 28 18 -2 4 -1 8 2 9 19 3 50 27 45 34 -4 6 1 7 11 3 12 -4
15 -3 10 5 -4 7 -1 12 9 12 21 0 96 60 89 71 -3 5 1 6 8 4 8 -3 43 17 78 45
36 27 69 50 74 50 23 0 65 -57 163 -222 58 -98 111 -178 118 -178 7 0 16 -7
19 -16 6 -15 4 -15 -10 -3 -16 13 -16 12 -5 -9 7 -13 15 -21 18 -18 11 10 33
-32 27 -49 -4 -10 -2 -15 6 -13 6 2 20 -11 29 -29 10 -17 25 -43 35 -57 9 -15
14 -31 11 -36 -3 -6 -1 -10 5 -10 6 0 8 -5 4 -12 -4 -7 -3 -8 4 -4 14 8 36
-30 26 -46 -4 -6 -3 -8 3 -5 6 4 19 -10 29 -30 10 -20 27 -45 37 -55 10 -11
16 -27 12 -37 -3 -9 2 -26 11 -37 14 -18 14 -18 3 6 -12 25 -12 25 10 6 21
-19 30 -53 10 -40 -14 8 2 -22 26 -51 16 -19 16 -18 0 8 -9 16 -15 31 -12 33
6 7 38 -44 36 -59 -3 -24 1 -38 9 -33 5 3 9 -1 9 -8 0 -21 76 -146 85 -140 4
3 5 -3 1 -12 -5 -13 -3 -15 7 -9 9 5 11 4 6 -3 -10 -16 13 -55 28 -49 7 3 13
-1 13 -9 0 -7 -5 -11 -10 -7 -5 3 -4 -4 3 -16 6 -12 15 -19 20 -16 6 3 7 0 4
-8 -3 -8 0 -18 7 -23 8 -5 10 -3 4 6 -6 9 -4 11 4 6 7 -5 10 -14 7 -22 -8 -20
14 -53 31 -47 7 3 13 -2 13 -12 0 -9 -5 -13 -11 -9 -8 4 -7 0 1 -15 6 -12 15
-19 20 -16 6 4 7 -1 3 -11 -4 -10 -2 -15 4 -11 5 3 10 0 10 -7 0 -14 61 -126
69 -126 3 0 2 4 -1 10 -3 6 1 7 9 4 9 -3 16 -12 16 -18 0 -7 8 -21 18 -32 9
-10 27 -35 40 -54 12 -19 22 -30 22 -25 0 6 4 4 8 -3 6 -9 16 -6 38 13 16 14
35 23 42 20 8 -3 12 2 10 12 -2 10 2 18 7 18 6 0 49 39 98 86 89 88 105 120
74 151 -12 12 -25 52 -56 176 -26 101 -32 128 -35 152 -2 14 -27 110 -57 215
-40 144 -55 184 -60 165 l-7 -25 -3 25 c-1 14 -2 40 -2 58 0 17 -4 32 -8 32
-15 0 -10 27 6 40 9 7 14 19 11 26 -3 8 -2 13 2 12 4 -1 36 27 72 62 35 35 59
61 52 56 -6 -4 -12 -5 -12 -1 0 3 11 10 25 15 16 6 23 14 19 25 -6 14 6 20 29
16 5 -1 6 3 2 8 -3 6 12 34 35 62 43 54 47 68 28 87 -17 17 -99 14 -122 -3
-11 -8 -28 -15 -39 -15 -10 0 -40 -18 -66 -40 -28 -23 -63 -43 -82 -46 -32 -5
-35 -3 -51 38 -24 58 -23 82 6 125 14 19 22 43 19 52 -3 11 -2 12 4 4 7 -10
20 -2 49 29 21 22 33 37 25 33 -9 -5 -12 -3 -9 6 3 8 13 16 24 17 10 2 24 9
29 14 7 8 6 9 -2 4 -21 -12 -15 4 16 43 15 20 26 42 23 50 -3 8 0 11 7 7 11
-7 12 -4 14 37 1 18 -4 22 -34 25 -22 2 -42 -3 -51 -11 -7 -8 -30 -20 -51 -26
-20 -7 -37 -17 -37 -22 0 -5 -12 -12 -27 -15 -16 -4 -43 -15 -61 -26 -31 -19
-32 -19 -38 -1 -4 10 -15 25 -26 33 -11 9 -21 30 -24 47 -3 16 -14 48 -24 69
-11 21 -20 56 -20 79 0 22 -5 47 -10 55 -8 13 -10 12 -10 -4 0 -45 -11 -3 -15
58 -5 71 -11 90 -26 81 -5 -4 -9 14 -9 41 0 46 2 49 93 138 50 51 115 111 144
135 34 29 50 49 46 60 -3 11 -2 12 4 3 7 -9 15 -6 33 13 22 23 22 25 5 19 -15
-5 -17 -4 -9 5 6 7 20 13 32 14 11 0 19 4 16 8 -4 7 102 119 113 119 10 0 42
45 43 59 0 8 2 12 5 9 3 -3 19 7 36 21 52 45 234 233 304 314 36 42 71 75 76
71 5 -3 9 -2 8 3 -6 23 37 86 52 77 5 -3 6 2 3 10 -3 8 2 23 11 33 28 31 65
93 65 108 0 8 3 15 8 15 11 0 77 143 73 160 -1 8 0 12 4 8 4 -4 33 43 63 105
30 61 63 129 73 150 11 21 19 48 19 61 0 14 5 26 12 28 12 4 14 9 27 83 12 70
1 95 -43 95 -19 0 -36 -5 -38 -11z m-3668 -1547 c-7 -3 -19 3 -28 13 -16 15
-15 16 12 4 15 -7 23 -15 16 -17z m420 -192 c18 -12 2 -12 -25 0 -13 6 -15 9
-5 9 8 0 22 -4 30 -9z m487 -185 c20 -8 34 -18 30 -21 -3 -3 -22 4 -44 15 -45
24 -37 27 14 6z m1818 -574 c-3 -6 -11 -11 -17 -11 -6 0 -6 6 2 15 14 17 26
13 15 -4z m-2478 -557 c-3 -3 -12 -4 -19 -1 -8 3 -5 6 6 6 11 1 17 -2 13 -5z
m-662 -204 c3 -6 -1 -7 -9 -4 -18 7 -21 14 -7 14 6 0 13 -4 16 -10z m-11801
-162 c4 -17 2 -28 -4 -28 -5 0 -10 14 -10 32 0 36 4 35 14 -4z m12136 -24 c0
-2 -9 0 -20 6 -11 6 -20 13 -20 16 0 2 9 0 20 -6 11 -6 20 -13 20 -16z
m-12136 -78 c1 -30 -2 -52 -7 -49 -4 2 -7 29 -6 59 3 69 13 61 13 -10z m3
-163 c-2 -21 -4 -6 -4 32 0 39 2 55 4 38 2 -18 2 -50 0 -70z m12079 -191 c-18
-16 -18 -16 -6 6 6 13 14 21 18 18 3 -4 -2 -14 -12 -24z m-7331 -1711 c876
-12 1049 -27 1322 -117 346 -113 590 -306 720 -569 51 -101 65 -145 107 -330
27 -119 35 -143 39 -115 2 19 4 9 3 -22 -1 -31 0 -55 4 -53 7 4 11 -73 4 -102
-3 -16 -16 -25 -44 -33 -25 -7 -38 -15 -34 -22 4 -6 3 -8 -3 -5 -15 9 -94 -24
-86 -36 3 -6 2 -7 -4 -4 -13 8 -94 -23 -87 -34 3 -5 -3 -6 -12 -2 -12 5 -15 3
-9 -6 5 -10 2 -12 -11 -7 -11 3 -37 -3 -59 -14 -25 -12 -31 -18 -15 -14 22 4
23 4 7 -6 -10 -7 -24 -10 -30 -7 -7 3 -26 -1 -42 -8 -17 -7 -23 -14 -15 -14
29 -3 -20 -23 -54 -23 -37 0 -76 -17 -41 -18 14 -1 10 -5 -14 -15 -18 -8 -37
-12 -42 -9 -5 3 -19 2 -30 -1 -16 -5 -18 -9 -9 -15 9 -6 0 -11 -26 -15 -63
-11 -105 -26 -99 -36 4 -5 -7 -9 -24 -9 -16 0 -37 -8 -47 -17 -10 -10 -27 -19
-39 -20 -12 -1 -37 -9 -56 -17 -19 -9 -25 -14 -14 -11 14 4 17 3 9 -4 -5 -6
-30 -13 -54 -15 -24 -3 -49 -12 -56 -20 -6 -9 -13 -13 -16 -10 -10 9 -88 -28
-81 -39 3 -6 1 -7 -6 -3 -6 4 -107 -31 -224 -77 -116 -47 -249 -99 -294 -117
-46 -18 -83 -37 -83 -42 0 -5 -4 -7 -9 -4 -12 8 -102 -24 -96 -34 3 -5 -3 -8
-13 -7 -31 2 -102 -25 -95 -36 3 -6 1 -7 -4 -4 -14 9 -104 -23 -97 -34 3 -5
-3 -10 -13 -10 -10 -1 -25 -3 -33 -4 -8 -1 -23 -3 -33 -4 -10 0 -16 -5 -13
-10 7 -10 -52 -34 -64 -26 -12 7 -41 -6 -35 -15 3 -5 -12 -14 -32 -20 -21 -7
-56 -20 -78 -30 -49 -23 -108 -37 -85 -21 18 13 3 13 -25 1 -13 -6 -15 -9 -5
-9 10 -1 7 -6 -9 -17 -13 -10 -33 -14 -49 -11 -15 3 -36 1 -47 -4 -18 -9 -18
-9 3 -5 12 2 22 2 22 0 0 -9 -54 -25 -96 -29 -24 -2 -51 -11 -60 -19 -8 -9
-21 -16 -27 -17 -7 -1 -19 -2 -27 -3 -8 -2 -23 -3 -33 -4 -10 -1 -16 -6 -12
-11 9 -15 -32 -32 -59 -25 -16 4 -29 0 -42 -14 -23 -24 -74 -40 -74 -22 0 6
-10 10 -22 8 l-23 -3 -3 1242 c-2 1402 -10 1275 81 1268 28 -3 367 -9 752 -14z
m1145 -51 c13 -9 13 -10 0 -10 -8 0 -22 5 -30 10 -13 9 -13 10 0 10 8 0 22 -5
30 -10z m160 -40 c0 -5 -2 -10 -4 -10 -3 0 -8 5 -11 10 -3 6 -1 10 4 10 6 0
11 -4 11 -10z m-640 -1890 c0 -5 -5 -10 -11 -10 -5 0 -7 5 -4 10 3 6 8 10 11
10 2 0 4 -4 4 -10z m-1050 -460 c-20 -13 -33 -13 -25 0 3 6 14 10 23 10 15 0
15 -2 2 -10z m-4400 -1264 c0 -2 -12 -12 -27 -21 l-28 -18 19 21 c17 20 36 29
36 18z"/>
<path d="M26644 13720 c28 -11 51 -18 53 -16 5 5 -74 36 -90 36 -6 -1 10 -10
37 -20z"/>
<path d="M26720 13690 c8 -5 24 -10 34 -10 26 0 18 6 -19 14 -22 5 -26 4 -15
-4z"/>
<path d="M26799 11483 c-13 -16 -12 -17 4 -4 9 7 17 15 17 17 0 8 -8 3 -21
-13z"/>
<path d="M12775 10270 c-3 -5 1 -10 9 -10 9 0 16 5 16 10 0 6 -4 10 -9 10 -6
0 -13 -4 -16 -10z"/>
<path d="M25780 9790 c-8 -5 -11 -10 -7 -10 14 0 -47 -47 -70 -54 -13 -4 -23
-13 -23 -20 0 -7 -12 -18 -26 -24 -14 -7 -22 -17 -19 -22 3 -6 1 -10 -5 -10
-6 0 -66 -46 -133 -102 -67 -57 -195 -161 -285 -232 -89 -71 -162 -133 -162
-138 0 -4 -5 -8 -12 -8 -7 0 -21 -9 -33 -20 -47 -45 -66 -60 -74 -60 -6 0 -16
-8 -23 -17 -7 -10 -25 -24 -40 -32 -15 -8 -25 -18 -22 -23 3 -5 2 -7 -3 -6
-14 4 -54 -23 -48 -33 4 -5 -1 -9 -9 -9 -9 0 -24 -8 -34 -17 -10 -10 -27 -23
-38 -30 -10 -6 -18 -16 -17 -22 2 -6 -4 -11 -12 -11 -18 0 -151 -99 -148 -111
2 -5 -4 -9 -12 -9 -13 0 -236 -158 -260 -184 -5 -6 -23 -17 -38 -24 -17 -7
-25 -17 -21 -24 4 -6 3 -8 -3 -5 -12 7 -109 -61 -105 -74 1 -5 -5 -9 -14 -9
-13 0 -95 -51 -114 -70 -3 -3 -58 -41 -124 -85 -65 -44 -129 -90 -142 -102
-13 -12 -24 -20 -24 -18 0 3 -121 -75 -268 -173 -147 -97 -306 -201 -352 -231
-47 -30 -101 -64 -120 -76 -19 -12 -69 -44 -110 -70 -252 -161 -959 -572
-1500 -873 -515 -285 -1046 -554 -1735 -877 -105 -49 -573 -260 -710 -320 -66
-29 -199 -87 -295 -129 -96 -43 -267 -115 -380 -162 -113 -47 -245 -102 -295
-124 -49 -21 -166 -68 -260 -104 -93 -37 -226 -89 -295 -116 -210 -82 -758
-282 -995 -363 -363 -125 -477 -163 -610 -207 -149 -48 -328 -104 -500 -155
-49 -14 -101 -30 -115 -35 -14 -5 -110 -32 -215 -60 -104 -28 -210 -57 -235
-64 -25 -8 -81 -23 -125 -36 -44 -12 -100 -28 -125 -35 -49 -14 -368 -92 -515
-126 -49 -11 -126 -29 -170 -39 -44 -10 -123 -28 -175 -39 -52 -11 -126 -27
-165 -35 -264 -58 -742 -138 -905 -152 -66 -6 -78 -9 -55 -15 23 -5 17 -7 -25
-6 -68 1 -273 -23 -280 -33 -3 -4 -56 -10 -117 -14 -62 -3 -147 -13 -190 -21
-43 -8 -133 -19 -201 -25 -67 -5 -173 -19 -234 -30 -61 -11 -113 -20 -115 -20
-2 0 -2 -4 1 -9 3 -5 -6 -12 -21 -16 -21 -5 -24 -8 -13 -14 40 -21 211 -51
345 -61 83 -6 202 -15 265 -21 186 -18 1246 -15 1530 5 129 8 343 20 475 26
132 6 249 13 260 15 11 3 159 19 329 36 252 25 311 28 317 17 5 -7 9 -590 9
-1295 0 -1388 1 -1420 49 -1444 21 -11 279 -14 1421 -14 767 -1 1630 1 1917 4
458 5 525 8 541 22 18 15 19 80 21 2009 1 1096 5 2012 7 2034 3 23 13 49 22
58 24 25 -9 24 1627 43 253 3 559 10 680 16 338 14 837 29 845 24 4 -2 58 2
121 11 209 27 233 31 477 84 52 11 106 20 120 20 15 0 40 7 55 15 15 8 45 17
65 20 94 16 610 173 637 195 6 4 26 11 45 15 19 4 44 14 56 22 12 7 34 15 50
17 35 5 140 51 149 65 3 6 15 11 27 11 11 0 31 9 45 20 14 11 34 20 44 20 9 0
25 7 33 16 16 15 52 36 161 93 58 31 80 44 198 123 48 32 90 58 93 58 7 0 82
60 148 117 26 24 52 43 57 43 6 0 25 15 43 33 19 19 41 37 50 40 9 4 16 12 16
19 0 7 10 18 23 23 12 6 21 16 20 23 -2 7 3 12 9 12 26 0 296 318 317 374 6
14 15 26 21 26 5 0 10 6 10 13 0 7 9 20 20 30 11 9 20 23 20 31 0 8 6 19 14
23 12 7 28 31 64 99 6 11 30 58 53 106 24 48 47 84 52 81 6 -3 7 -1 3 5 -7 12
24 83 34 77 17 -10 149 338 194 511 69 267 77 386 92 1229 3 204 8 373 10 377
5 7 -7 110 -30 263 -17 108 -28 82 147 346 120 182 154 249 124 249 -7 0 -19
-5 -27 -10z"/>
<path d="M9765 5320 c10 -11 20 -20 23 -20 3 0 -3 9 -13 20 -10 11 -20 20 -23
20 -3 0 3 -9 13 -20z"/>
<path d="M14638 5103 c7 -3 16 -2 19 1 4 3 -2 6 -13 5 -11 0 -14 -3 -6 -6z"/>
<path d="M18965 4250 c-3 -5 -3 -10 2 -10 4 0 7 -803 5 -1785 l-2 -1785 2340
0 2340 0 0 1795 0 1795 -2339 0 c-1549 0 -2342 -3 -2346 -10z m1308 -346 l258
-6 9 -24 c12 -31 28 -654 36 -1394 3 -327 10 -612 15 -632 9 -33 37 -69 96
-119 43 -37 131 -99 140 -99 5 0 18 -9 28 -20 10 -11 26 -20 36 -20 10 0 38
-9 61 -19 138 -61 523 -83 712 -40 106 24 234 67 257 86 8 7 20 13 26 13 11 0
116 80 121 93 2 4 15 20 28 36 19 23 26 51 41 157 15 113 17 243 20 1053 3
649 7 929 15 938 8 10 93 13 418 13 367 0 409 -2 421 -17 12 -13 13 -168 11
-942 -3 -860 -5 -936 -23 -1066 -22 -154 -49 -263 -84 -340 -92 -202 -337
-368 -700 -474 -163 -47 -617 -101 -850 -101 -125 0 -465 27 -555 44 -41 8
-106 20 -145 26 -85 15 -159 36 -289 85 -241 90 -419 220 -520 378 -20 31 -36
59 -36 62 0 3 -15 38 -34 78 -62 134 -82 326 -96 947 -30 1279 -30 1294 -12
1308 12 9 56 11 177 7 88 -3 276 -8 418 -11z"/>
<path d="M23820 2465 l0 -1795 2340 0 2340 0 0 1795 0 1795 -2340 0 -2340 0 0
-1795z m1407 1425 c10 -14 54 -65 98 -114 44 -50 94 -106 110 -125 17 -19 57
-65 90 -101 80 -87 200 -222 261 -291 27 -30 139 -156 249 -279 189 -211 333
-373 400 -450 17 -19 62 -68 100 -110 87 -94 184 -204 260 -293 48 -57 60 -66
71 -55 25 25 34 303 34 1074 l0 762 31 6 c17 3 197 6 399 6 282 0 370 -3 377
-12 11 -14 -1 -2776 -12 -2835 l-6 -33 -419 0 -420 0 -29 28 c-16 15 -134 144
-262 287 -339 379 -566 631 -634 705 -33 36 -80 88 -104 115 -24 28 -70 77
-100 110 -31 33 -115 125 -185 205 -71 80 -156 175 -190 211 -34 36 -78 87
-99 113 -21 25 -43 44 -48 41 -5 -4 -9 -356 -9 -899 0 -709 -3 -896 -13 -904
-8 -7 -142 -11 -385 -13 -327 -2 -375 0 -389 14 -24 24 -32 434 -33 1724 0
1069 1 1132 18 1136 9 3 198 5 419 4 l403 -2 17 -25z"/>
</g>
</svg>
